# This file uses centimeters as units for non-parametric coordinates.

mtllib 3.mtl
v 0.270282 0.110863 0.000000
v 0.270282 0.135864 0.000000
v -0.700032 1.095238 0.000000
v 0.799839 0.671802 0.000000
v -0.007844 1.250086 0.000000
v -0.700032 0.749925 0.000000
v -0.682844 0.749925 0.000000
v -0.200032 0.249925 0.000000
v 0.500332 0.630404 0.000000
v 0.007936 0.950209 0.000000
v -0.125401 0.249782 0.000000
v -0.200032 -0.050075 0.000000
v -0.775032 -0.750075 0.000000
v 0.500382 -0.468833 0.000000
v -0.089387 -0.049275 0.000000
v -0.081013 -0.950565 0.000000
v -0.800032 -0.750075 0.000000
v -0.800032 -1.095387 0.000000
v 0.620281 -0.045387 0.000000
v -0.081282 -1.250137 0.000000
v 0.800032 -0.489137 0.000000
v 0.400632 -0.178611 0.000000
v 0.727919 -0.178655 0.000000
v -0.000025 -0.946774 0.000000
v -0.000031 -1.247813 0.000000
v -0.441763 -0.892979 0.000000
v -0.800032 -0.892932 0.000000
v -0.400050 -0.904645 0.000000
v -0.399876 -1.218320 0.000000
v 0.229412 -0.893092 0.000000
v 0.685699 -0.892901 0.000000
v 0.399968 -1.147729 0.000000
v 0.399968 -0.892932 0.000000
v 0.497417 -0.535839 0.000000
v 0.798528 -0.535780 0.000000
v 0.399968 -0.770035 0.000000
v 0.490396 -0.357230 0.000000
v 0.790650 -0.357216 0.000000
v 0.599968 -0.535789 0.000000
v 0.599968 -0.357218 0.000000
v 0.599968 -0.178646 0.000000
v 0.779856 0.535649 0.000000
v 0.487930 0.535639 0.000000
v -0.000035 0.252554 0.000000
v -0.000021 -0.050674 0.000000
v -0.200032 0.178497 0.000000
v -0.000032 0.178497 0.000000
v 0.417939 0.178496 0.000000
v 0.399968 0.171478 0.000000
v 0.399968 0.178497 0.000000
v 0.400002 -0.177964 0.000000
v 0.399968 0.076412 0.000000
v -0.000032 -0.000075 0.000000
v 0.399968 -0.000075 0.000000
v 0.199846 -0.074820 0.000000
v 0.199968 -0.000075 0.000000
v 0.199968 0.178497 0.000000
v 0.399969 0.390842 0.000000
v 0.357344 0.357068 0.000000
v 0.399968 0.357068 0.000000
v 0.200050 0.284114 0.000000
v 0.675397 0.357030 0.000000
v 0.600013 0.286395 0.000000
v 0.599968 0.357068 0.000000
v 0.599968 0.535639 0.000000
v -0.000033 1.250137 0.000000
v -0.000035 0.950118 0.000000
v -0.700032 0.892782 0.000000
v -0.355044 0.892780 0.000000
v -0.400032 0.878415 0.000000
v -0.400032 0.892782 0.000000
v -0.400106 1.198485 0.000000
v 0.756567 0.892783 0.000000
v 0.326360 0.892397 0.000000
v 0.399968 0.892782 0.000000
v 0.399994 0.846366 0.000000
v 0.399973 1.191403 0.000000
v 0.617167 1.071355 0.000000
v 0.399968 1.071354 0.000000
v 0.599968 1.071354 0.000000
v 0.599968 0.892782 0.000000
v 0.599968 1.084802 0.000000
vt 0.668946 0.544375
vt 0.668946 0.554376
vt 0.062500 0.938125
vt 1.000000 0.768750
vt 0.495118 1.000000
vt 0.062500 0.800000
vt 0.073242 0.800000
vt 0.375000 0.600000
vt 0.812478 0.752191
vt 0.504981 0.879998
vt 0.421644 0.599940
vt 0.375000 0.480000
vt 0.015625 0.200000
vt 0.812717 0.312497
vt 0.444153 0.480175
vt 0.449387 0.119876
vt 0.000000 0.200000
vt 0.000000 0.061875
vt 0.887695 0.481875
vt 0.449219 0.000000
vt 1.000000 0.304375
vt 0.750392 0.428571
vt 0.954979 0.428571
vt 0.500000 0.121350
vt 0.500000 0.000911
vt 0.223926 0.142857
vt 0.000000 0.142857
vt 0.250000 0.138199
vt 0.250000 0.012381
vt 0.643361 0.142857
vt 0.928612 0.142857
vt 0.750000 0.040938
vt 0.750000 0.142857
vt 0.810596 0.285714
vt 0.999199 0.285714
vt 0.750000 0.192016
vt 0.806558 0.357143
vt 0.994169 0.357143
vt 0.875000 0.285714
vt 0.875000 0.357143
vt 0.875000 0.428571
vt 0.987449 0.714286
vt 0.804976 0.714286
vt 0.500000 0.601032
vt 0.500000 0.479648
vt 0.375000 0.571429
vt 0.500000 0.571429
vt 0.761232 0.571429
vt 0.750000 0.568621
vt 0.750000 0.571429
vt 0.750000 0.428831
vt 0.750000 0.530595
vt 0.500000 0.500000
vt 0.750000 0.500000
vt 0.625000 0.470308
vt 0.625000 0.500000
vt 0.625000 0.571429
vt 0.750000 0.656367
vt 0.723360 0.642857
vt 0.750000 0.642857
vt 0.625000 0.613787
vt 0.922117 0.642857
vt 0.875000 0.614610
vt 0.875000 0.642857
vt 0.875000 0.714286
vt 0.500000 0.999995
vt 0.500000 0.879986
vt 0.062500 0.857143
vt 0.278117 0.857143
vt 0.250000 0.851395
vt 0.250000 0.857143
vt 0.250000 0.979302
vt 0.972874 0.857143
vt 0.704110 0.857143
vt 0.750000 0.857143
vt 0.750000 0.838563
vt 0.750000 0.976585
vt 0.885749 0.928571
vt 0.750000 0.928571
vt 0.875000 0.928571
vt 0.875000 0.857143
vt 0.875000 0.933950
vn 0.000000 0.000000 1.000000
vn 0.000000 0.000000 1.000000
vn 0.000000 0.000000 1.000000
vn 0.000000 0.000000 1.000000
vn 0.000000 0.000000 1.000000
vn 0.000000 0.000000 1.000000
vn 0.000000 0.000000 1.000000
vn 0.000000 0.000000 1.000000
vn 0.000000 0.000000 1.000000
vn 0.000000 0.000000 1.000000
vn 0.000000 0.000000 1.000000
vn 0.000000 0.000000 1.000000
vn 0.000000 0.000000 1.000000
vn 0.000000 0.000000 1.000000
vn 0.000000 0.000000 1.000000
vn 0.000000 0.000000 1.000000
vn 0.000000 0.000000 1.000000
vn 0.000000 0.000000 1.000000
vn 0.000000 0.000000 1.000000
vn 0.000000 0.000000 1.000000
vn 0.000000 0.000000 1.000000
vn 0.000000 0.000000 1.000000
vn 0.000000 0.000000 1.000000
vn 0.000000 0.000000 1.000000
vn 0.000000 0.000000 1.000000
vn 0.000000 0.000000 1.000000
vn 0.000000 0.000000 1.000000
vn 0.000000 0.000000 1.000000
vn 0.000000 0.000000 1.000000
vn 0.000000 0.000000 1.000000
vn 0.000000 0.000000 1.000000
vn 0.000000 0.000000 1.000000
vn 0.000000 0.000000 1.000000
vn 0.000000 0.000000 1.000000
vn 0.000000 0.000000 1.000000
vn 0.000000 0.000000 1.000000
vn 0.000000 0.000000 1.000000
vn 0.000000 0.000000 1.000000
vn 0.000000 0.000000 1.000000
vn 0.000000 0.000000 1.000000
vn 0.000000 0.000000 1.000000
vn 0.000000 0.000000 1.000000
vn 0.000000 0.000000 1.000000
vn 0.000000 0.000000 1.000000
vn 0.000000 0.000000 1.000000
vn 0.000000 0.000000 1.000000
vn 0.000000 0.000000 1.000000
vn 0.000000 0.000000 1.000000
vn 0.000000 0.000000 1.000000
vn 0.000000 0.000000 1.000000
vn 0.000000 0.000000 1.000000
vn 0.000000 0.000000 1.000000
vn 0.000000 0.000000 1.000000
vn 0.000000 0.000000 1.000000
vn 0.000000 0.000000 1.000000
vn 0.000000 0.000000 1.000000
vn 0.000000 0.000000 1.000000
vn 0.000000 0.000000 1.000000
vn 0.000000 0.000000 1.000000
vn 0.000000 0.000000 1.000000
vn 0.000000 0.000000 1.000000
vn 0.000000 0.000000 1.000000
vn 0.000000 0.000000 1.000000
vn 0.000000 0.000000 1.000000
vn 0.000000 0.000000 1.000000
vn 0.000000 0.000000 1.000000
vn 0.000000 0.000000 1.000000
vn 0.000000 0.000000 1.000000
vn 0.000000 0.000000 1.000000
vn 0.000000 0.000000 1.000000
vn 0.000000 0.000000 1.000000
vn 0.000000 0.000000 1.000000
vn 0.000000 0.000000 1.000000
vn 0.000000 0.000000 1.000000
vn 0.000000 0.000000 1.000000
vn 0.000000 0.000000 1.000000
vn 0.000000 0.000000 1.000000
vn 0.000000 0.000000 1.000000
vn 0.000000 0.000000 1.000000
vn 0.000000 0.000000 1.000000
vn 0.000000 0.000000 1.000000
vn 0.000000 0.000000 1.000000
s 1
usemtl initialShadingGroup
f 78/78/1 82/82/2 80/80/3
f 40/40/4 38/38/5 23/23/6
f 13/13/7 17/17/8 27/27/9
f 16/16/10 28/28/11 29/29/12
f 26/26/13 27/27/9 18/18/14
f 32/32/15 31/31/16 33/33/17
f 24/24/18 25/25/19 32/32/15
f 36/36/20 33/33/17 31/31/16
f 36/36/20 30/30/21 33/33/17
f 39/39/22 35/35/23 21/21/24
f 14/14/25 34/34/26 39/39/22
f 37/37/27 40/40/4 41/41/28
f 62/62/29 42/42/30 65/65/31
f 11/11/32 8/8/33 46/46/34
f 46/46/34 12/12/35 15/15/36
f 49/49/37 48/48/38 50/50/39
f 56/56/40 54/54/41 52/52/42
f 55/55/43 51/51/44 54/54/41
f 45/45/45 55/55/43 56/56/40
f 53/53/46 56/56/40 57/57/47
f 58/58/48 59/59/49 60/60/50
f 61/61/51 57/57/47 50/50/39
f 44/44/52 47/47/53 57/57/47
f 63/63/54 62/62/29 64/64/55
f 63/63/54 64/64/55 60/60/50
f 58/58/48 60/60/50 64/64/55
f 72/72/56 71/71/57 69/69/58
f 70/70/59 69/69/58 71/71/57
f 68/68/60 6/6/61 7/7/62
f 3/3/63 68/68/60 71/71/57
f 81/81/64 76/76/65 9/9/66
f 75/75/67 74/74/68 76/76/65
f 66/66/69 67/67/70 10/10/71
f 78/78/1 80/80/3 81/81/64
f 75/75/67 81/81/64 80/80/3
f 82/82/2 77/77/72 79/79/73
f 41/41/28 23/23/6 19/19/74
f 23/23/6 41/41/28 40/40/4
f 27/27/9 26/26/13 13/13/7
f 25/25/19 24/24/18 16/16/10
f 20/20/75 25/25/19 16/16/10
f 16/16/10 29/29/12 20/20/75
f 29/29/12 28/28/11 26/26/13
f 26/26/13 18/18/14 29/29/12
f 32/32/15 33/33/17 30/30/21
f 30/30/21 24/24/18 32/32/15
f 31/31/16 35/35/23 39/39/22
f 31/31/16 34/34/26 36/36/20
f 39/39/22 34/34/26 31/31/16
f 38/38/5 40/40/4 39/39/22
f 21/21/24 38/38/5 39/39/22
f 40/40/4 37/37/27 14/14/25
f 39/39/22 40/40/4 14/14/25
f 41/41/28 22/22/76 37/37/27
f 65/65/31 64/64/55 62/62/29
f 47/47/53 44/44/52 11/11/32
f 46/46/34 47/47/53 11/11/32
f 15/15/36 45/45/45 53/53/46
f 53/53/46 47/47/53 46/46/34
f 15/15/36 53/53/46 46/46/34
f 49/49/37 50/50/39 57/57/47
f 1/1/77 2/2/78 57/57/47
f 1/1/77 57/57/47 56/56/40
f 52/52/42 1/1/77 56/56/40
f 57/57/47 2/2/78 49/49/37
f 54/54/41 56/56/40 55/55/43
f 56/56/40 53/53/46 45/45/45
f 57/57/47 47/47/53 53/53/46
f 50/50/39 60/60/50 59/59/49
f 59/59/49 61/61/51 50/50/39
f 57/57/47 61/61/51 44/44/52
f 60/60/50 50/50/39 48/48/38
f 48/48/38 63/63/54 60/60/50
f 64/64/55 65/65/31 43/43/79
f 64/64/55 43/43/79 58/58/48
f 67/67/70 66/66/69 5/5/80
f 67/67/70 5/5/80 72/72/56
f 69/69/58 67/67/70 72/72/56
f 70/70/59 71/71/57 68/68/60
f 68/68/60 7/7/62 70/70/59
f 71/71/57 72/72/56 3/3/63
f 65/65/31 42/42/30 4/4/81
f 81/81/64 75/75/67 76/76/65
f 4/4/81 73/73/82 81/81/64
f 81/81/64 9/9/66 4/4/81
f 9/9/66 43/43/79 65/65/31
f 65/65/31 4/4/81 9/9/66
f 74/74/68 75/75/67 79/79/73
f 10/10/71 74/74/68 77/77/72
f 10/10/71 77/77/72 66/66/69
f 79/79/73 77/77/72 74/74/68
f 81/81/64 73/73/82 78/78/1
f 80/80/3 79/79/73 75/75/67
f 79/79/73 80/80/3 82/82/2
f 54/54/41 51/51/44 22/22/76
f 19/19/74 54/54/41 22/22/76
f 22/22/76 41/41/28 19/19/74
f 54/54/41 19/19/74 52/52/42
