# This file uses centimeters as units for non-parametric coordinates.

mtllib 8.mtl
v 0.392544 0.068956 0.000000
v 0.392544 0.078332 0.000000
v -0.373080 0.090832 0.000000
v 0.000357 1.250205 0.000000
v 0.750578 0.642393 0.000000
v -0.749740 0.620520 0.000000
v -0.373080 0.081457 0.000000
v 0.850356 -0.529481 0.000000
v -0.850356 -0.540043 0.000000
v -0.003064 -1.250205 0.000000
v 0.194107 0.154894 0.000000
v 0.450356 0.601769 0.000000
v -0.449895 0.620520 0.000000
v -0.004331 0.950274 0.000000
v -0.171518 0.008019 0.000000
v 0.550356 -0.524793 0.000000
v 0.009411 -0.950461 0.000000
v -0.550457 -0.480423 0.000000
v -0.728342 -0.178523 0.000000
v 0.739890 -0.178631 0.000000
v 0.322903 -0.178574 0.000000
v -0.434240 -0.178634 0.000000
v -0.106049 -1.246295 0.000000
v -0.105954 -0.941480 0.000000
v -0.753197 -0.892885 0.000000
v -0.273679 -0.892862 0.000000
v -0.425178 -1.170904 0.000000
v -0.425177 -0.892999 0.000000
v -0.592315 -1.072071 0.000000
v -0.425177 -1.071600 0.000000
v -0.638292 -1.032851 0.000000
v -0.637766 -0.892999 0.000000
v -0.850342 -0.535799 0.000000
v -0.547536 -0.535903 0.000000
v -0.425387 -0.787184 0.000000
v -0.822468 -0.357146 0.000000
v -0.532950 -0.357223 0.000000
v -0.637766 -0.535799 0.000000
v -0.637766 -0.357198 0.000000
v -0.637766 -0.178598 0.000000
v 0.744476 -0.892924 0.000000
v 0.307459 -0.893007 0.000000
v 0.425188 -1.162058 0.000000
v 0.425178 -0.892999 0.000000
v 0.850329 -0.535799 0.000000
v 0.550235 -0.535799 0.000000
v 0.425197 -0.818111 0.000000
v 0.825554 -0.714207 0.000000
v 0.506563 -0.714399 0.000000
v 0.637767 -0.714399 0.000000
v 0.637767 -0.892999 0.000000
v 0.637767 -0.535799 0.000000
v 0.425178 -0.178598 0.000000
v 0.425121 -0.243736 0.000000
v 0.829038 -0.357193 0.000000
v 0.518621 -0.357196 0.000000
v 0.637767 -0.357198 0.000000
v 0.637767 -0.178598 0.000000
v 0.740171 0.535864 0.000000
v -0.744313 0.535802 0.000000
v -0.438402 0.535804 0.000000
v 0.447213 0.535804 0.000000
v -0.106151 0.258390 0.000000
v -0.106027 -0.014640 0.000000
v -0.514326 0.178600 0.000000
v -0.106027 0.178603 0.000000
v -0.425177 0.120148 0.000000
v -0.425176 0.057971 0.000000
v -0.425154 -0.168329 0.000000
v -0.425177 0.178603 0.000000
v -0.425177 0.498958 0.000000
v -0.684857 0.357340 0.000000
v -0.425177 0.357204 0.000000
v -0.637670 0.291388 0.000000
v -0.637766 0.357204 0.000000
v -0.637766 0.535804 0.000000
v -0.301064 0.357203 0.000000
v -0.265602 0.178603 0.000000
v -0.265568 0.334603 0.000000
v 0.541521 0.178545 0.000000
v 0.113017 0.178845 0.000000
v 0.227751 0.178603 0.000000
v 0.425189 0.095762 0.000000
v 0.425178 0.054217 0.000000
v 0.425178 0.178603 0.000000
v 0.425178 0.428880 0.000000
v 0.678166 0.357178 0.000000
v 0.425178 0.357204 0.000000
v 0.637647 0.288698 0.000000
v 0.637767 0.357204 0.000000
v 0.637767 0.535804 0.000000
v -0.106026 1.245159 0.000000
v -0.106012 0.943488 0.000000
v -0.684176 0.892970 0.000000
v -0.272261 0.892926 0.000000
v -0.424995 0.742313 0.000000
v -0.425177 0.893005 0.000000
v -0.425178 1.149015 0.000000
v 0.694685 0.892963 0.000000
v 0.261993 0.893141 0.000000
v 0.425178 0.893005 0.000000
v 0.424569 0.730060 0.000000
v 0.425178 1.159312 0.000000
vt 0.730812 0.527577
vt 0.730812 0.531326
vt 0.280633 0.536326
vt 0.500210 1.000000
vt 0.941201 0.756915
vt 0.059217 0.748166
vt 0.280633 0.532576
vt 1.000000 0.288241
vt 0.000000 0.284017
vt 0.498198 0.000000
vt 0.614132 0.561946
vt 0.764804 0.740667
vt 0.235614 0.748166
vt 0.497453 0.880019
vt 0.399149 0.503206
vt 0.823603 0.290116
vt 0.505536 0.120105
vt 0.176661 0.307859
vt 0.071800 0.428571
vt 0.935072 0.428571
vt 0.689856 0.428571
vt 0.244647 0.428571
vt 0.437657 0.001673
vt 0.437657 0.123277
vt 0.057018 0.142857
vt 0.339042 0.142857
vt 0.250000 0.031714
vt 0.250000 0.142857
vt 0.151942 0.071429
vt 0.250000 0.071429
vt 0.125000 0.087152
vt 0.125000 0.142857
vt 0.000008 0.285714
vt 0.178583 0.285714
vt 0.250000 0.185259
vt 0.016494 0.357143
vt 0.186580 0.357143
vt 0.125000 0.285714
vt 0.125000 0.357143
vt 0.125000 0.428571
vt 0.937811 0.142857
vt 0.680781 0.142857
vt 0.750000 0.035259
vt 0.750000 0.142857
vt 0.999985 0.285714
vt 0.823532 0.285714
vt 0.750000 0.172816
vt 0.985820 0.214286
vt 0.797853 0.214286
vt 0.875000 0.214286
vt 0.875000 0.142857
vt 0.875000 0.285714
vt 0.750000 0.428571
vt 0.750000 0.402550
vt 0.987454 0.357143
vt 0.804940 0.357143
vt 0.875000 0.357143
vt 0.875000 0.428571
vt 0.935401 0.714286
vt 0.062360 0.714286
vt 0.242226 0.714286
vt 0.762956 0.714286
vt 0.437657 0.603459
vt 0.437657 0.494144
vt 0.197583 0.571429
vt 0.437657 0.571429
vt 0.250000 0.548050
vt 0.250000 0.523185
vt 0.250000 0.432687
vt 0.250000 0.571429
vt 0.250000 0.699550
vt 0.097176 0.642857
vt 0.250000 0.642857
vt 0.125000 0.616503
vt 0.125000 0.642857
vt 0.125000 0.714286
vt 0.322977 0.642857
vt 0.343829 0.571429
vt 0.343829 0.633795
vt 0.818377 0.571429
vt 0.566407 0.571429
vt 0.633915 0.571429
vt 0.750000 0.538305
vt 0.750000 0.521682
vt 0.750000 0.571429
vt 0.750000 0.671523
vt 0.898724 0.642857
vt 0.750000 0.642857
vt 0.875000 0.615427
vt 0.875000 0.642857
vt 0.875000 0.714286
vt 0.437657 0.997986
vt 0.437657 0.877376
vt 0.097673 0.857143
vt 0.339890 0.857143
vt 0.250000 0.796908
vt 0.250000 0.857143
vt 0.250000 0.959530
vt 0.908518 0.857143
vt 0.654008 0.857143
vt 0.750000 0.857143
vt 0.750000 0.792082
vt 0.750000 0.963648
vn 0.000000 0.000000 1.000000
vn 0.000000 0.000000 1.000000
vn 0.000000 0.000000 1.000000
vn 0.000000 0.000000 1.000000
vn 0.000000 0.000000 1.000000
vn 0.000000 0.000000 1.000000
vn 0.000000 0.000000 1.000000
vn 0.000000 0.000000 1.000000
vn 0.000000 0.000000 1.000000
vn 0.000000 0.000000 1.000000
vn 0.000000 0.000000 1.000000
vn 0.000000 0.000000 1.000000
vn 0.000000 0.000000 1.000000
vn 0.000000 0.000000 1.000000
vn 0.000000 0.000000 1.000000
vn 0.000000 0.000000 1.000000
vn 0.000000 0.000000 1.000000
vn 0.000000 0.000000 1.000000
vn 0.000000 0.000000 1.000000
vn 0.000000 0.000000 1.000000
vn 0.000000 0.000000 1.000000
vn 0.000000 0.000000 1.000000
vn 0.000000 0.000000 1.000000
vn 0.000000 0.000000 1.000000
vn 0.000000 0.000000 1.000000
vn 0.000000 0.000000 1.000000
vn 0.000000 0.000000 1.000000
vn 0.000000 0.000000 1.000000
vn 0.000000 0.000000 1.000000
vn 0.000000 0.000000 1.000000
vn 0.000000 0.000000 1.000000
vn 0.000000 0.000000 1.000000
vn 0.000000 0.000000 1.000000
vn 0.000000 0.000000 1.000000
vn 0.000000 0.000000 1.000000
vn 0.000000 0.000000 1.000000
vn 0.000000 0.000000 1.000000
vn 0.000000 0.000000 1.000000
vn 0.000000 0.000000 1.000000
vn 0.000000 0.000000 1.000000
vn 0.000000 0.000000 1.000000
vn 0.000000 0.000000 1.000000
vn 0.000000 0.000000 1.000000
vn 0.000000 0.000000 1.000000
vn 0.000000 0.000000 1.000000
vn 0.000000 0.000000 1.000000
vn 0.000000 0.000000 1.000000
vn 0.000000 0.000000 1.000000
vn 0.000000 0.000000 1.000000
vn 0.000000 0.000000 1.000000
vn 0.000000 0.000000 1.000000
vn 0.000000 0.000000 1.000000
vn 0.000000 0.000000 1.000000
vn 0.000000 0.000000 1.000000
vn 0.000000 0.000000 1.000000
vn 0.000000 0.000000 1.000000
vn 0.000000 0.000000 1.000000
vn 0.000000 0.000000 1.000000
vn 0.000000 0.000000 1.000000
vn 0.000000 0.000000 1.000000
vn 0.000000 0.000000 1.000000
vn 0.000000 0.000000 1.000000
vn 0.000000 0.000000 1.000000
vn 0.000000 0.000000 1.000000
vn 0.000000 0.000000 1.000000
vn 0.000000 0.000000 1.000000
vn 0.000000 0.000000 1.000000
vn 0.000000 0.000000 1.000000
vn 0.000000 0.000000 1.000000
vn 0.000000 0.000000 1.000000
vn 0.000000 0.000000 1.000000
vn 0.000000 0.000000 1.000000
vn 0.000000 0.000000 1.000000
vn 0.000000 0.000000 1.000000
vn 0.000000 0.000000 1.000000
vn 0.000000 0.000000 1.000000
vn 0.000000 0.000000 1.000000
vn 0.000000 0.000000 1.000000
vn 0.000000 0.000000 1.000000
vn 0.000000 0.000000 1.000000
vn 0.000000 0.000000 1.000000
vn 0.000000 0.000000 1.000000
vn 0.000000 0.000000 1.000000
vn 0.000000 0.000000 1.000000
vn 0.000000 0.000000 1.000000
vn 0.000000 0.000000 1.000000
vn 0.000000 0.000000 1.000000
vn 0.000000 0.000000 1.000000
vn 0.000000 0.000000 1.000000
vn 0.000000 0.000000 1.000000
vn 0.000000 0.000000 1.000000
vn 0.000000 0.000000 1.000000
vn 0.000000 0.000000 1.000000
vn 0.000000 0.000000 1.000000
vn 0.000000 0.000000 1.000000
vn 0.000000 0.000000 1.000000
vn 0.000000 0.000000 1.000000
vn 0.000000 0.000000 1.000000
vn 0.000000 0.000000 1.000000
vn 0.000000 0.000000 1.000000
vn 0.000000 0.000000 1.000000
vn 0.000000 0.000000 1.000000
vn 0.000000 0.000000 1.000000
s 1
usemtl initialShadingGroup
f 99/99/1 103/103/2 101/101/3
f 20/20/4 58/58/5 57/57/6
f 37/37/7 22/22/8 40/40/9
f 23/23/10 24/24/11 26/26/12
f 29/29/13 30/30/14 28/28/15
f 29/29/13 27/27/16 30/30/14
f 25/25/17 31/31/18 32/32/19
f 28/28/15 26/26/12 35/35/20
f 32/32/19 35/35/20 34/34/21
f 18/18/22 37/37/7 39/39/23
f 36/36/24 33/33/25 38/38/26
f 19/19/27 36/36/24 39/39/23
f 43/43/28 41/41/29 51/51/30
f 43/43/28 44/44/31 42/42/32
f 48/48/33 45/45/34 52/52/35
f 47/47/36 42/42/32 44/44/31
f 41/41/29 48/48/33 50/50/37
f 47/47/36 44/44/31 51/51/30
f 46/46/38 49/49/39 50/50/37
f 53/53/40 21/21/41 54/54/42
f 55/55/43 57/57/6 52/52/35
f 57/57/6 56/56/44 16/16/45
f 58/58/5 53/53/40 54/54/42
f 87/87/46 59/59/47 91/91/48
f 77/77/49 71/71/50 73/73/51
f 7/7/52 68/68/53 69/69/54
f 65/65/55 67/67/56 70/70/57
f 76/76/58 75/75/59 73/73/51
f 65/65/55 70/70/57 73/73/51
f 72/72/60 74/74/61 75/75/59
f 76/76/58 60/60/62 72/72/60
f 78/78/63 66/66/64 63/63/65
f 70/70/57 78/78/63 79/79/66
f 83/83/67 80/80/68 85/85/69
f 11/11/70 81/81/71 64/64/72
f 81/81/71 63/63/65 66/66/64
f 89/89/73 87/87/46 90/90/74
f 89/89/73 90/90/74 88/88/75
f 86/86/76 88/88/75 90/90/74
f 98/98/77 97/97/78 95/95/79
f 96/96/80 95/95/79 97/97/78
f 6/6/81 76/76/58 96/96/80
f 98/98/77 94/94/82 97/97/78
f 5/5/83 99/99/1 101/101/3
f 101/101/3 100/100/84 102/102/85
f 103/103/2 4/4/86 14/14/87
f 68/68/53 19/19/27 40/40/9
f 84/84/88 53/53/40 58/58/5
f 82/82/89 85/85/69 88/88/75
f 57/57/6 55/55/43 20/20/4
f 40/40/9 39/39/23 37/37/7
f 26/26/12 28/28/15 30/30/14
f 30/30/14 27/27/16 23/23/10
f 23/23/10 26/26/12 30/30/14
f 28/28/15 32/32/19 31/31/18
f 31/31/18 29/29/13 28/28/15
f 38/38/26 33/33/25 9/9/90
f 32/32/19 28/28/15 35/35/20
f 25/25/17 38/38/26 9/9/90
f 25/25/17 32/32/19 34/34/21
f 38/38/26 25/25/17 34/34/21
f 38/38/26 34/34/21 18/18/22
f 18/18/22 39/39/23 38/38/26
f 38/38/26 39/39/23 36/36/24
f 39/39/23 40/40/9 19/19/27
f 51/51/30 44/44/31 43/43/28
f 17/17/91 24/24/11 23/23/10
f 17/17/91 10/10/92 43/43/28
f 42/42/32 17/17/91 43/43/28
f 23/23/10 10/10/92 17/17/91
f 52/52/35 50/50/37 48/48/33
f 50/50/37 51/51/30 41/41/29
f 51/51/30 50/50/37 49/49/39
f 51/51/30 49/49/39 47/47/36
f 50/50/37 52/52/35 46/46/38
f 52/52/35 45/45/34 8/8/93
f 8/8/93 55/55/43 52/52/35
f 16/16/45 46/46/38 52/52/35
f 52/52/35 57/57/6 16/16/45
f 56/56/44 57/57/6 58/58/5
f 54/54/42 56/56/44 58/58/5
f 91/91/48 90/90/74 87/87/46
f 64/64/72 66/66/64 78/78/63
f 15/15/94 78/78/63 3/3/95
f 69/69/54 15/15/94 7/7/52
f 3/3/95 7/7/52 15/15/94
f 70/70/57 67/67/56 3/3/95
f 78/78/63 70/70/57 3/3/95
f 78/78/63 15/15/94 64/64/72
f 71/71/50 61/61/96 76/76/58
f 76/76/58 73/73/51 71/71/50
f 73/73/51 75/75/59 74/74/61
f 74/74/61 65/65/55 73/73/51
f 72/72/60 75/75/59 76/76/58
f 63/63/65 79/79/66 78/78/63
f 77/77/49 73/73/51 70/70/57
f 79/79/66 77/77/49 70/70/57
f 83/83/67 85/85/69 2/2/97
f 21/21/41 53/53/40 84/84/88
f 81/81/71 66/66/64 64/64/72
f 21/21/41 1/1/98 11/11/70
f 64/64/72 21/21/41 11/11/70
f 84/84/88 1/1/98 21/21/41
f 11/11/70 1/1/98 2/2/97
f 82/82/89 2/2/97 85/85/69
f 2/2/97 82/82/89 11/11/70
f 88/88/75 85/85/69 80/80/68
f 88/88/75 80/80/68 89/89/73
f 90/90/74 91/91/48 62/62/99
f 90/90/74 62/62/99 86/86/76
f 93/93/100 92/92/101 98/98/77
f 95/95/79 93/93/100 98/98/77
f 76/76/58 61/61/96 13/13/102
f 6/6/81 60/60/62 76/76/58
f 96/96/80 97/97/78 94/94/82
f 96/96/80 94/94/82 6/6/81
f 13/13/102 96/96/80 76/76/58
f 12/12/103 62/62/99 91/91/48
f 91/91/48 59/59/47 5/5/83
f 102/102/85 91/91/48 5/5/83
f 5/5/83 101/101/3 102/102/85
f 91/91/48 102/102/85 12/12/103
f 92/92/101 93/93/100 14/14/87
f 100/100/84 101/101/3 103/103/2
f 103/103/2 14/14/87 100/100/84
f 14/14/87 4/4/86 92/92/101
f 40/40/9 22/22/8 69/69/54
f 69/69/54 68/68/53 40/40/9
f 58/58/5 20/20/4 84/84/88
f 88/88/75 86/86/76 82/82/89
