# This file uses centimeters as units for non-parametric coordinates.

mtllib arrow.mtl
v -0.481134 -0.125000 0.500000
v 0.481134 -0.125000 0.500000
v -0.481134 0.125000 0.500000
v 0.481134 0.125000 0.500000
v -0.250000 0.125000 -0.212925
v 0.250000 0.125000 -0.212925
v -0.250000 -0.125000 -0.212925
v 0.250000 -0.125000 -0.212925
v 0.404404 -0.125000 -0.212925
v 0.404404 0.125000 -0.212925
v -0.404404 -0.125000 -0.212925
v -0.404404 0.125000 -0.212925
v 0.000000 -0.125000 -0.747539
v 0.000000 0.125000 -0.747539
vt 0.375000 0.000000
vt 0.625000 0.000000
vt 0.375000 0.250000
vt 0.625000 0.250000
vt 0.375000 0.375000
vt 0.625000 0.375000
vt 0.375000 0.875000
vt 0.625000 0.875000
vt 0.375000 1.000000
vt 0.625000 1.000000
vt 0.750000 0.000000
vt 0.750000 0.250000
vt 0.250000 0.000000
vt 0.250000 0.250000
vt 0.750000 0.250000
vt 0.625000 0.875000
vt 0.250000 0.000000
vt 0.375000 0.375000
vt 0.437428 0.437332
vt 0.562955 0.312348
vn 0.000000 0.000000 1.000000
vn 0.000000 0.000000 1.000000
vn 0.000000 0.000000 1.000000
vn 0.000000 0.000000 1.000000
vn 0.000000 1.000000 0.000000
vn 0.000000 1.000000 0.000000
vn 0.000000 1.000000 0.000000
vn 0.000000 1.000000 0.000000
vn 0.000000 -1.000000 0.000000
vn 0.000000 -1.000000 0.000000
vn 0.000000 -1.000000 0.000000
vn 0.000000 -1.000000 0.000000
vn 0.951256 0.000000 -0.308402
vn 0.951256 0.000000 -0.308402
vn 0.951256 0.000000 -0.308402
vn 0.951256 0.000000 -0.308402
vn -0.951256 0.000000 -0.308402
vn -0.951256 0.000000 -0.308402
vn -0.951256 0.000000 -0.308402
vn -0.951256 0.000000 -0.308402
vn 0.797527 0.000000 -0.603283
vn 0.797527 0.000000 -0.603283
vn 0.000000 0.000000 -1.000000
vn 0.000000 0.000000 -1.000000
vn 0.000000 0.000000 1.000000
vn 0.000000 0.000000 1.000000
vn 0.000000 0.000000 1.000000
vn 0.000000 0.000000 1.000000
vn 0.000000 -1.000000 0.000000
vn 0.000000 -1.000000 0.000000
vn 0.000000 -1.000000 0.000000
vn 0.000000 -1.000000 0.000000
vn 0.000000 -1.000000 0.000000
vn 0.000000 0.000000 1.000000
vn 0.000000 0.000000 1.000000
vn 0.000000 0.000000 1.000000
vn 0.000000 0.000000 1.000000
vn 0.000000 1.000000 0.000000
vn 0.000000 1.000000 0.000000
vn 0.000000 1.000000 0.000000
vn 0.000000 1.000000 0.000000
vn 0.000000 1.000000 0.000000
vn -0.797527 0.000000 -0.603283
vn -0.797527 0.000000 -0.603283
s off
usemtl initialShadingGroup
f 1/1/1 2/2/2 4/4/3 3/3/4
f 3/3/5 4/4/6 6/6/7 5/5/8
f 7/7/9 8/8/10 2/10/11 1/9/12
f 2/2/13 8/11/14 6/12/15 4/4/16
f 7/13/17 1/1/18 3/3/19 5/14/20
s 1
f 10/15/21 9/16/22 13/19/23 14/20/24
s off
f 6/12/25 8/8/26 9/16/27 10/15/28
f 8/8/29 7/13/30 11/17/31 13/19/32 9/16/33
f 7/13/34 5/5/35 12/18/36 11/17/37
f 5/5/38 6/12/39 10/15/40 14/20/41 12/18/42
s 1
f 14/20/24 13/19/23 11/17/43 12/18/44
v -0.481134 -0.125000 0.500000
v 0.481134 -0.125000 0.500000
v -0.481134 0.125000 0.500000
v 0.481134 0.125000 0.500000
v -0.250000 0.125000 -0.212925
v 0.250000 0.125000 -0.212925
v -0.250000 -0.125000 -0.212925
v 0.250000 -0.125000 -0.212925
v 0.404404 -0.125000 -0.212925
v 0.404404 0.125000 -0.212925
v -0.404404 -0.125000 -0.212925
v -0.404404 0.125000 -0.212925
v 0.000000 -0.125000 -0.747539
v 0.000000 0.125000 -0.747539
vt 0.375000 0.000000
vt 0.625000 0.000000
vt 0.375000 0.250000
vt 0.625000 0.250000
vt 0.375000 0.375000
vt 0.625000 0.375000
vt 0.375000 0.875000
vt 0.625000 0.875000
vt 0.375000 1.000000
vt 0.625000 1.000000
vt 0.750000 0.000000
vt 0.750000 0.250000
vt 0.250000 0.000000
vt 0.250000 0.250000
vt 0.750000 0.250000
vt 0.625000 0.875000
vt 0.250000 0.000000
vt 0.375000 0.375000
vt 0.437428 0.437332
vt 0.562955 0.312348
vn 0.000000 0.000000 1.000000
vn 0.000000 0.000000 1.000000
vn 0.000000 0.000000 1.000000
vn 0.000000 0.000000 1.000000
vn 0.000000 1.000000 0.000000
vn 0.000000 1.000000 0.000000
vn 0.000000 1.000000 0.000000
vn 0.000000 1.000000 0.000000
vn 0.000000 -1.000000 0.000000
vn 0.000000 -1.000000 0.000000
vn 0.000000 -1.000000 0.000000
vn 0.000000 -1.000000 0.000000
vn 0.951256 0.000000 -0.308402
vn 0.951256 0.000000 -0.308402
vn 0.951256 0.000000 -0.308402
vn 0.951256 0.000000 -0.308402
vn -0.951256 0.000000 -0.308402
vn -0.951256 0.000000 -0.308402
vn -0.951256 0.000000 -0.308402
vn -0.951256 0.000000 -0.308402
vn 0.797527 0.000000 -0.603283
vn 0.797527 0.000000 -0.603283
vn 0.000000 0.000000 -1.000000
vn 0.000000 0.000000 -1.000000
vn 0.000000 0.000000 1.000000
vn 0.000000 0.000000 1.000000
vn 0.000000 0.000000 1.000000
vn 0.000000 0.000000 1.000000
vn 0.000000 -1.000000 0.000000
vn 0.000000 -1.000000 0.000000
vn 0.000000 -1.000000 0.000000
vn 0.000000 -1.000000 0.000000
vn 0.000000 -1.000000 0.000000
vn 0.000000 0.000000 1.000000
vn 0.000000 0.000000 1.000000
vn 0.000000 0.000000 1.000000
vn 0.000000 0.000000 1.000000
vn 0.000000 1.000000 0.000000
vn 0.000000 1.000000 0.000000
vn 0.000000 1.000000 0.000000
vn 0.000000 1.000000 0.000000
vn 0.000000 1.000000 0.000000
vn -0.797527 0.000000 -0.603283
vn -0.797527 0.000000 -0.603283
s off
f 15/21/45 16/22/46 18/24/47 17/23/48
f 17/23/49 18/24/50 20/26/51 19/25/52
f 21/27/53 22/28/54 16/30/55 15/29/56
f 16/22/57 22/31/58 20/32/59 18/24/60
f 21/33/61 15/21/62 17/23/63 19/34/64
s 1
f 24/35/65 23/36/66 27/39/67 28/40/68
s off
f 20/32/69 22/28/70 23/36/71 24/35/72
f 22/28/73 21/33/74 25/37/75 27/39/76 23/36/77
f 21/33/78 19/25/79 26/38/80 25/37/81
f 19/25/82 20/32/83 24/35/84 28/40/85 26/38/86
s 1
f 28/40/68 27/39/67 25/37/87 26/38/88
