# This file uses centimeters as units for non-parametric coordinates.

mtllib asymBldg.mtl
v -50.000000 -250.000000 50.000000
v 50.000000 -250.000000 50.000000
v -70.000000 250.000000 70.000000
v 70.000000 250.000000 70.000000
v -70.000000 250.000000 -70.000000
v 70.000000 250.000000 -70.000000
v -50.000000 -250.000000 -50.000000
v 50.000000 -250.000000 -50.000000
v -59.105831 -1.246562 58.000000
v -59.105831 -1.246562 -58.000000
v 59.105831 -1.246562 -58.000000
v 59.105831 -1.246562 58.000000
vt 0.375000 0.000000
vt 0.625000 0.000000
vt 0.375000 0.250000
vt 0.625000 0.250000
vt 0.375000 0.500000
vt 0.625000 0.500000
vt 0.375000 0.750000
vt 0.625000 0.750000
vt 0.375000 1.000000
vt 0.625000 1.000000
vt 0.875000 0.000000
vt 0.875000 0.250000
vt 0.125000 0.000000
vt 0.125000 0.250000
vt 0.375000 0.128301
vt 0.125000 0.128301
vt 0.375000 0.621699
vt 0.625000 0.621699
vt 0.875000 0.128301
vt 0.625000 0.128301
vn 0.000000 -0.032144 0.999483
vn 0.000000 -0.032144 0.999483
vn 0.000000 -0.040816 0.999167
vn 0.000000 -0.040816 0.999167
vn 0.000000 1.000000 0.000000
vn 0.000000 1.000000 0.000000
vn 0.000000 1.000000 0.000000
vn 0.000000 1.000000 0.000000
vn 0.000000 -0.040816 -0.999167
vn 0.000000 -0.040816 -0.999167
vn 0.000000 -0.032144 -0.999483
vn 0.000000 -0.032144 -0.999483
vn 0.000000 -1.000000 0.000000
vn 0.000000 -1.000000 0.000000
vn 0.000000 -1.000000 0.000000
vn 0.000000 -1.000000 0.000000
vn 0.999331 -0.036581 0.000000
vn 0.999331 -0.036581 0.000000
vn 0.999186 -0.040338 0.000000
vn 0.999186 -0.040338 0.000000
vn -0.999331 -0.036581 0.000000
vn -0.999331 -0.036581 0.000000
vn -0.999186 -0.040338 0.000000
vn -0.999186 -0.040338 0.000000
vn -0.999061 -0.043320 0.000000
vn -0.999061 -0.043320 0.000000
vn 0.000000 -0.047707 -0.998861
vn 0.000000 -0.047707 -0.998861
vn 0.999061 -0.043320 0.000000
vn 0.999061 -0.043320 0.000000
vn 0.000000 -0.047707 0.998861
vn 0.000000 -0.047707 0.998861
s 1
usemtl initialShadingGroup
f 1/1/1 2/2/2 12/20/3 9/15/4
s off
f 3/3/5 4/4/6 6/6/7 5/5/8
s 2
f 10/17/9 11/18/10 8/8/11 7/7/12
s off
f 7/7/13 8/8/14 2/10/15 1/9/16
s 3
f 2/2/17 8/11/18 11/19/19 12/20/20
s 4
f 7/13/21 1/1/22 9/15/23 10/16/24
f 10/16/24 9/15/23 3/3/25 5/14/26
s 2
f 5/5/27 6/6/28 11/18/10 10/17/9
s 3
f 12/20/20 11/19/19 6/12/29 4/4/30
s 1
f 9/15/4 12/20/3 4/4/31 3/3/32
