# This file uses centimeters as units for non-parametric coordinates.

mtllib flag.mtl
v 0.077254 -5.000000 -0.237764
v -0.202254 -5.000000 -0.146946
v -0.202254 -5.000000 0.146946
v 0.077254 -5.000000 0.237764
v 0.250000 -5.000000 0.000000
v 0.077254 5.000000 -0.237764
v -0.202254 5.000000 -0.146946
v -0.202254 5.000000 0.146946
v 0.077254 5.000000 0.237764
v 0.250000 5.000000 0.000000
v 0.000000 -5.000000 0.000000
v 0.000000 5.000000 0.000000
v 0.000000 2.000092 0.000000
v 6.707547 2.000092 0.113208
v 6.707547 4.900564 0.113208
v 0.000000 4.900564 0.000000
v 3.391359 2.000092 0.556278
v 3.391359 4.900564 0.556278
v 1.736437 2.000092 -0.030469
v 1.736437 4.900564 -0.030469
v 1.736437 3.450328 -0.030469
v 0.000000 3.450328 0.000000
v 0.867260 2.000092 -0.203023
v 0.867260 3.450328 -0.203023
v 0.867260 4.900564 -0.203023
v 3.391359 3.450328 0.556278
v 2.535749 2.000092 0.367917
v 2.535749 3.450328 0.367917
v 3.391359 2.725210 0.556278
v 2.535749 2.725210 0.367917
v 2.961522 2.000092 0.536013
v 2.961522 2.725210 0.536013
v 2.961522 3.450328 0.536013
v 2.535749 4.900564 0.367917
v 3.391359 4.175446 0.556278
v 2.535749 4.175446 0.367917
v 2.961522 4.175446 0.536013
v 2.961522 4.900564 0.536013
v 4.976523 2.000092 -0.229320
v 4.976523 4.900564 -0.229320
v 4.976523 3.450328 -0.229320
v 4.167506 2.000092 0.126721
v 4.167506 3.450328 0.126721
v 4.167506 2.725210 0.126721
v 3.756159 2.000092 0.409828
v 3.756159 2.725210 0.409828
v 3.756159 3.450328 0.409828
v 4.167506 4.900564 0.126721
v 4.167506 4.175446 0.126721
v 3.756159 4.175446 0.409828
v 3.756159 4.900564 0.409828
v 6.707547 3.450328 0.113208
v 5.856471 2.000092 -0.198692
v 5.856471 3.450328 -0.198692
v 5.856471 4.900564 -0.198692
vt 0.548284 0.007647
vt 0.373591 0.064409
vt 0.373591 0.248091
vt 0.548284 0.304853
vt 0.656250 0.156250
vt 0.375000 0.312500
vt 0.425000 0.312500
vt 0.475000 0.312500
vt 0.525000 0.312500
vt 0.575000 0.312500
vt 0.625000 0.312500
vt 0.375000 0.688440
vt 0.425000 0.688440
vt 0.475000 0.688440
vt 0.525000 0.688440
vt 0.575000 0.688440
vt 0.625000 0.688440
vt 0.548284 0.695147
vt 0.373591 0.751909
vt 0.373591 0.935591
vt 0.548284 0.992353
vt 0.656250 0.843750
vt 0.500000 0.150000
vt 0.500000 0.837500
vt 1.000000 0.500000
vt 1.000000 1.000000
vt 0.941506 0.500000
vt 0.605103 0.750000
vt 0.605103 1.000000
vt 0.512372 0.750000
vt 0.259017 0.500000
vt 0.259017 1.000000
vt 0.115374 0.500000
vt 0.115374 0.000000
vt 0.259017 0.000000
vt 0.000000 0.000000
vt 0.000000 0.500000
vt 0.115374 1.000000
vt 0.605103 0.250000
vt 0.605103 0.500000
vt 0.512372 0.250000
vt 0.419641 0.000000
vt 0.419641 0.250000
vt 0.512372 0.000000
vt 0.605103 0.000000
vt 0.512372 0.500000
vt 0.419641 1.000000
vt 0.419641 0.750000
vt 0.419641 0.500000
vt 0.512372 1.000000
vt 0.861557 0.500000
vt 0.861557 1.000000
vt 0.754123 0.750000
vt 0.861557 0.000000
vt 0.754123 0.250000
vt 0.754123 0.500000
vt 0.679613 0.250000
vt 0.679613 0.000000
vt 0.754123 0.000000
vt 0.679613 0.500000
vt 0.679613 0.750000
vt 0.754123 1.000000
vt 0.679613 1.000000
vt 0.941506 0.000000
vt 1.000000 0.000000
vt 0.941506 1.000000
vt 0.000000 1.000000
vn -0.309017 0.000000 -0.951057
vn -0.309017 0.000000 -0.951057
vn -0.309017 0.000000 -0.951057
vn -0.309017 0.000000 -0.951057
vn -1.000000 0.000000 -0.000000
vn -1.000000 0.000000 -0.000000
vn -1.000000 0.000000 -0.000000
vn -1.000000 0.000000 -0.000000
vn -0.309017 0.000000 0.951057
vn -0.309017 0.000000 0.951057
vn -0.309017 0.000000 0.951057
vn -0.309017 0.000000 0.951057
vn 0.809017 0.000000 0.587785
vn 0.809017 0.000000 0.587785
vn 0.809017 0.000000 0.587785
vn 0.809017 0.000000 0.587785
vn 0.809017 0.000000 -0.587785
vn 0.809017 0.000000 -0.587785
vn 0.809017 0.000000 -0.587785
vn 0.809017 0.000000 -0.587785
vn 0.000000 -1.000000 0.000000
vn 0.000000 -1.000000 0.000000
vn 0.000000 -1.000000 0.000001
vn 0.000000 -1.000000 0.000002
vn 0.000000 -1.000000 0.000002
vn 0.000000 -1.000000 0.000000
vn 0.000000 1.000000 0.000001
vn 0.000000 1.000000 0.000001
vn 0.000000 1.000000 0.000001
vn 0.000000 1.000000 0.000002
vn 0.000000 1.000000 0.000002
vn 0.000000 1.000000 -0.000001
vn -0.344097 0.000000 0.938934
vn -0.344097 0.000000 0.938934
vn -0.194112 0.000000 0.980980
vn 0.156831 0.000000 0.987626
vn 0.156831 0.000000 0.987625
vn -0.215000 0.000000 0.976614
vn -0.308276 0.000000 0.951297
vn -0.308276 0.000000 0.951297
vn 0.017544 0.000000 0.999846
vn 0.017544 0.000000 0.999846
vn -0.308275 0.000000 0.951297
vn 0.227935 0.000000 0.973677
vn 0.227935 0.000000 0.973676
vn 0.017544 0.000000 0.999846
vn 0.156831 0.000000 0.987625
vn 0.156831 0.000000 0.987625
vn -0.215000 0.000000 0.976614
vn -0.419704 0.000000 0.907661
vn -0.425621 0.000000 0.904902
vn -0.215000 0.000000 0.976614
vn 0.156831 0.000000 0.987626
vn -0.215000 0.000000 0.976614
vn -0.419704 0.000000 0.907661
vn -0.425621 0.000000 0.904902
vn -0.419704 0.000000 0.907661
vn -0.215000 0.000000 0.976614
vn 0.161568 0.000000 0.986862
vn 0.161568 0.000000 0.986862
vn 0.450733 0.000000 0.892659
vn 0.161568 0.000000 0.986862
vn 0.450733 0.000000 0.892659
vn 0.463955 0.000000 0.885859
vn 0.484233 0.000000 0.874939
vn 0.484233 0.000000 0.874939
vn 0.463955 0.000000 0.885859
vn 0.484233 0.000000 0.874939
vn 0.484233 0.000000 0.874939
vn 0.463955 0.000000 0.885859
vn 0.484233 0.000000 0.874939
vn -0.194112 0.000000 0.980980
vn -0.344097 0.000000 0.938934
vn -0.194112 0.000000 0.980979
vn 0.227935 0.000000 0.973677
s off
usemtl initialShadingGroup
f 1/6/1 2/7/2 7/13/3 6/12/4
f 2/7/5 3/8/6 8/14/7 7/13/8
f 3/8/9 4/9/10 9/15/11 8/14/12
f 4/9/13 5/10/14 10/16/15 9/15/16
f 5/10/17 1/11/18 6/17/19 10/16/20
s 1
f 2/2/21 1/1/22 11/23/23
f 3/3/24 2/2/21 11/23/23
f 4/4/25 3/3/24 11/23/23
f 5/5/26 4/4/25 11/23/23
f 1/1/22 5/5/26 11/23/23
s 2
f 6/21/27 7/20/28 12/24/29
f 7/20/28 8/19/30 12/24/29
f 8/19/30 9/18/31 12/24/29
f 9/18/31 10/22/32 12/24/29
f 10/22/32 6/21/27 12/24/29
s 3
f 52/25/33 15/26/34 54/27/35
f 35/28/36 18/29/37 37/30/38
f 21/31/39 20/32/40 24/33/41
f 23/34/42 19/35/43 21/31/39
f 13/36/44 23/34/42 24/33/41
f 22/37/45 24/33/41 25/38/46
f 29/39/47 26/40/48 32/41/49
f 19/35/43 27/42/50 30/43/51
f 31/44/52 17/45/53 29/39/47
f 27/42/50 31/44/52 32/41/49
f 30/43/51 32/41/49 33/46/54
f 34/47/55 20/32/40 36/48/56
f 26/40/48 35/28/36 33/46/54
f 28/49/57 33/46/54 37/30/38
f 36/48/56 37/30/38 38/50/58
f 41/51/59 40/52/60 49/53/61
f 39/54/62 41/51/59 44/55/63
f 44/55/63 43/56/64 46/57/65
f 45/58/66 42/59/67 44/55/63
f 17/45/53 45/58/66 46/57/65
f 29/39/47 46/57/65 47/60/68
f 50/61/69 49/53/61 48/62/70
f 47/60/68 43/56/64 49/53/61
f 26/40/48 47/60/68 50/61/69
f 35/28/36 50/61/69 51/63/71
f 53/64/72 14/65/73 52/25/33
f 39/54/62 53/64/72 54/27/35
f 41/51/59 54/27/35 55/66/74
f 15/26/34 55/66/74 54/27/35
f 18/29/37 38/50/58 37/30/38
f 20/32/40 25/38/46 24/33/41
f 21/31/39 24/33/41 23/34/42
f 24/33/41 22/37/45 13/36/44
f 25/38/46 16/67/75 22/37/45
f 26/40/48 33/46/54 32/41/49
f 28/49/57 21/31/39 30/43/51
f 30/43/51 21/31/39 19/35/43
f 29/39/47 32/41/49 31/44/52
f 32/41/49 30/43/51 27/42/50
f 33/46/54 28/49/57 30/43/51
f 21/31/39 28/49/57 36/48/56
f 36/48/56 20/32/40 21/31/39
f 35/28/36 37/30/38 33/46/54
f 37/30/38 36/48/56 28/49/57
f 38/50/58 34/47/55 36/48/56
f 49/53/61 43/56/64 41/51/59
f 49/53/61 40/52/60 48/62/70
f 44/55/63 42/59/67 39/54/62
f 44/55/63 41/51/59 43/56/64
f 43/56/64 47/60/68 46/57/65
f 44/55/63 46/57/65 45/58/66
f 46/57/65 29/39/47 17/45/53
f 47/60/68 26/40/48 29/39/47
f 48/62/70 51/63/71 50/61/69
f 49/53/61 50/61/69 47/60/68
f 50/61/69 35/28/36 26/40/48
f 51/63/71 18/29/37 35/28/36
f 52/25/33 54/27/35 53/64/72
f 54/27/35 41/51/59 39/54/62
f 55/66/74 40/52/60 41/51/59
