# This file uses centimeters as units for non-parametric coordinates.

mtllib mailbox.mtl
v -2.000000 -3.250000 1.500000
v 2.000000 -3.250000 1.500000
v -2.000000 -3.250000 -1.500000
v 2.000000 -3.250000 -1.500000
v -1.560704 3.310704 1.500000
v -2.000000 2.250150 1.500000
v -0.500150 3.750000 1.500000
v -2.000000 2.250150 -1.500000
v -1.560704 3.310704 -1.500000
v -0.500150 3.750000 -1.500000
v 1.560704 3.310704 1.500000
v 0.500150 3.750000 1.500000
v 2.000000 2.250150 1.500000
v 2.000000 2.250150 -1.500000
v 0.500150 3.750000 -1.500000
v 1.560704 3.310704 -1.500000
v 1.560704 -3.250000 1.500000
v 1.560704 -3.250000 -1.500000
v -1.560704 -3.250000 1.500000
v -1.560704 -3.250000 -1.500000
v -1.556604 3.312402 1.500000
v -1.556604 3.312402 -1.500000
v -2.000000 -3.250000 1.000000
v 2.000000 -3.250000 1.000000
v 1.560704 -3.250000 1.000000
v -1.560704 -3.250000 1.000000
v -2.000000 -3.250000 -0.990566
v 2.000000 -3.250000 -0.990566
v 1.560704 -3.250000 -0.990566
v -1.560704 -3.250000 -0.990566
v -2.000000 -3.750000 -1.500000
v -1.560704 -3.750000 -1.500000
v -1.560704 -3.750000 -0.990566
v -2.000000 -3.750000 -0.990566
v 1.560704 -3.750000 1.000000
v 1.560704 -3.750000 1.500000
v 2.000000 -3.750000 1.000000
v 2.000000 -3.750000 1.500000
v -1.560704 -3.750000 1.000000
v -2.000000 -3.750000 1.000000
v -1.560704 -3.750000 1.500000
v -2.000000 -3.750000 1.500000
v 1.560704 -3.750000 -0.990566
v 2.000000 -3.750000 -0.990566
v 1.560704 -3.750000 -1.500000
v 2.000000 -3.750000 -1.500000
vt 0.625000 0.750000
vt 0.375000 1.000000
vt 0.625000 1.000000
vt 0.375000 0.000000
vt 0.625000 0.553566
vt 0.375000 0.750000
vt 0.125000 0.000000
vt 0.125000 0.196434
vt 0.625000 0.000000
vt 0.875000 0.000000
vt 0.375000 0.196434
vt 0.125000 0.234311
vt 0.402456 0.250000
vt 0.468741 0.500000
vt 0.531259 0.250000
vt 0.597544 0.250000
vt 0.597544 0.500000
vt 0.625000 0.234311
vt 0.875000 0.196434
vt 0.875000 0.234311
vt 0.402456 0.234311
vt 0.468741 0.250000
vt 0.375000 0.553566
vt 0.402456 0.515689
vt 0.597544 0.234311
vt 0.625000 0.196434
vt 0.531259 0.500000
vt 0.597544 0.515689
vt 0.600825 0.000000
vt 0.600825 1.000000
vt 0.600825 0.750000
vt 0.402712 0.000000
vt 0.402712 1.000000
vt 0.402712 0.750000
vt 0.402712 0.250000
vt 0.402712 0.234372
vt 0.402712 0.500000
vt 0.402712 0.515628
vt 0.339623 0.000000
vt 0.375000 0.964623
vt 0.625000 0.964623
vt 0.660377 0.000000
vt 0.600825 0.964623
vt 0.402712 0.964623
vt 0.167453 0.000000
vt 0.375000 0.792453
vt 0.625000 0.792453
vt 0.832547 0.000000
vt 0.600825 0.792453
vt 0.402712 0.792453
vt 0.375000 0.750000
vt 0.402712 0.750000
vt 0.402712 0.792453
vt 0.375000 0.792453
vt 0.600825 1.000000
vt 0.600825 0.964623
vt 0.625000 0.964623
vt 0.625000 1.000000
vt 0.375000 0.964623
vt 0.402712 0.964623
vt 0.402712 1.000000
vt 0.375000 1.000000
vt 0.625000 0.792453
vt 0.600825 0.792453
vt 0.600825 0.750000
vt 0.625000 0.750000
vn 0.000000 0.000000 1.000000
vn 0.000000 0.000000 1.000000
vn 0.000000 0.000000 1.000000
vn 0.000000 0.000000 1.000000
vn -0.000000 0.000000 1.000000
vn -0.000000 0.000000 1.000000
vn 0.000000 0.000000 1.000000
vn 0.000000 0.000000 1.000000
vn -0.208103 0.978107 0.000000
vn -0.208103 0.978107 0.000000
vn 0.208478 0.978027 0.000000
vn 0.208478 0.978027 0.000000
vn 0.000000 -1.000000 0.000000
vn 0.000000 -1.000000 0.000000
vn 0.000000 -1.000000 0.000000
vn 0.000000 -1.000000 0.000000
vn 1.000000 0.000000 0.000000
vn 1.000000 0.000000 0.000000
vn 1.000000 0.000000 0.000000
vn 1.000000 0.000000 0.000000
vn 0.997766 0.066809 0.000000
vn 0.997766 0.066809 0.000000
vn -1.000000 0.000000 0.000000
vn -1.000000 0.000000 0.000000
vn -1.000000 0.000000 0.000000
vn -1.000000 0.000000 0.000000
vn -0.997725 0.067412 -0.000000
vn -0.997725 0.067412 -0.000000
vn 0.000000 0.000000 -1.000000
vn 0.000000 0.000000 -1.000000
vn -0.000000 0.000000 -1.000000
vn -0.000000 0.000000 -1.000000
vn 0.000000 0.000000 -1.000000
vn 0.000000 0.000000 -1.000000
vn 0.000000 0.000000 -1.000000
vn 0.000000 0.000000 -1.000000
vn -0.707107 0.707107 -0.000000
vn -0.707107 0.707107 -0.000000
vn -0.922833 0.385201 -0.000000
vn -0.922833 0.385201 -0.000000
vn 0.382684 0.923879 0.000000
vn 0.382684 0.923879 0.000000
vn 0.923880 0.382683 0.000000
vn 0.923880 0.382683 0.000000
vn 0.000000 0.000000 1.000000
vn 0.000000 0.000000 1.000000
vn 0.000000 0.000000 -1.000000
vn 0.000000 0.000000 -1.000000
vn -0.000000 0.000000 1.000000
vn -0.000000 0.000000 -1.000000
vn 0.000000 -1.000000 0.000000
vn 0.000000 -1.000000 0.000000
vn 0.000000 -1.000000 0.000000
vn 0.000000 -1.000000 0.000000
vn 0.000000 -1.000000 0.000000
vn 0.000000 -1.000000 0.000000
vn 0.000000 -1.000000 0.000000
vn 0.000000 -1.000000 0.000000
vn 0.000000 -1.000000 0.000000
vn 0.000000 -1.000000 0.000000
vn 0.000000 -1.000000 0.000000
vn 0.000000 -1.000000 0.000000
vn 0.000000 -1.000000 0.000000
vn 0.000000 -1.000000 0.000000
vn 0.000000 -1.000000 0.000000
vn 0.000000 -1.000000 0.000000
vn 0.000000 -1.000000 0.000000
vn 0.000000 -1.000000 0.000000
vn 0.000000 -1.000000 0.000000
vn 0.000000 -1.000000 0.000000
vn 0.000000 -1.000000 0.000000
vn 0.000000 -1.000000 0.000000
vn 0.000000 -1.000000 0.000000
vn 0.000000 -1.000000 0.000000
vn 0.000000 0.000000 -1.000000
vn 0.000000 0.000000 -1.000000
vn 1.000000 0.000000 0.000000
vn 1.000000 0.000000 0.000000
vn 1.000000 0.000000 0.000000
vn 1.000000 0.000000 0.000000
vn 0.000000 0.000000 1.000000
vn 0.000000 0.000000 1.000000
vn 0.000000 0.000000 1.000000
vn 0.000000 0.000000 1.000000
vn -1.000000 0.000000 0.000000
vn -1.000000 0.000000 0.000000
vn -1.000000 0.000000 0.000000
vn -1.000000 0.000000 0.000000
vn -1.000000 0.000000 0.000000
vn -1.000000 0.000000 0.000000
vn 0.000000 0.000000 -1.000000
vn 0.000000 0.000000 -1.000000
vn 0.000000 0.000000 -1.000000
vn 0.000000 0.000000 -1.000000
vn 1.000000 0.000000 0.000000
vn 1.000000 0.000000 0.000000
vn 0.000000 0.000000 1.000000
vn 0.000000 0.000000 1.000000
vn 0.000000 0.000000 -1.000000
vn 0.000000 0.000000 -1.000000
vn 0.000000 0.000000 -1.000000
vn 0.000000 0.000000 -1.000000
vn 1.000000 0.000000 0.000000
vn 1.000000 0.000000 0.000000
vn 1.000000 0.000000 0.000000
vn 1.000000 0.000000 0.000000
vn 0.000000 0.000000 1.000000
vn 0.000000 0.000000 1.000000
vn -1.000000 0.000000 0.000000
vn -1.000000 0.000000 0.000000
vn 0.000000 0.000000 1.000000
vn 0.000000 0.000000 1.000000
vn 0.000000 0.000000 1.000000
vn 0.000000 0.000000 1.000000
vn -1.000000 0.000000 0.000000
vn -1.000000 0.000000 0.000000
vn -1.000000 0.000000 0.000000
vn -1.000000 0.000000 0.000000
vn 0.000000 0.000000 -1.000000
vn 0.000000 0.000000 -1.000000
vn 1.000000 0.000000 0.000000
vn 1.000000 0.000000 0.000000
s 1
usemtl initialShadingGroup
f 1/4/1 19/32/2 17/29/3 2/9/4 13/26/5 12/15/6 7/22/7 6/11/8
s 2
f 10/14/9 7/22/10 12/15/11 15/27/12
s off
f 31/51/13 32/52/14 33/53/15 34/54/16
s 3
f 2/9/17 24/42/18 28/48/19 4/10/20 14/19/21 13/26/22
s 2
f 3/7/23 27/45/24 23/39/25 1/4/26 6/11/27 8/8/28
s 5
f 8/23/29 10/14/30 15/27/31 14/5/32 4/1/33 18/31/34 20/34/35 3/6/36
s 2
f 21/35/37 22/37/38 9/12/39 8/8/28 6/11/27 5/13/40
f 12/15/11 11/16/41 16/17/42 15/27/12
s 3
f 11/18/43 13/26/22 14/19/21 16/20/44
s 1
f 5/21/45 6/11/8 7/22/7 21/36/46
s 5
f 8/23/29 9/24/47 22/38/48 10/14/30
s 1
f 11/25/49 12/15/6 13/26/5
s 5
f 14/5/32 15/27/31 16/28/50
s off
f 36/55/51 35/56/52 37/57/53 38/58/54
s 6
f 19/33/55 26/44/56 25/43/57 17/30/58
s 2
f 7/22/10 10/14/9 22/37/38 21/35/37
s off
f 40/59/59 39/60/60 41/61/61 42/62/62
s 6
f 24/41/63 25/43/57 29/49/64 28/47/65
f 25/43/57 26/44/56 30/50/66 29/49/64
f 27/46/67 30/50/66 26/44/56 23/40/68
s off
f 44/63/69 43/64/70 45/65/71 46/66/72
s 6
f 29/49/64 30/50/66 20/34/73 18/31/74
s 5
f 3/6/36 20/34/35 32/52/75 31/51/76
s off
f 20/34/77 30/50/78 33/53/79 32/52/80
f 30/50/81 27/46/82 34/54/83 33/53/84
s 2
f 27/46/24 3/6/23 31/51/85 34/54/86
s off
f 17/30/87 25/43/88 35/56/89 36/55/90
f 25/43/91 24/41/92 37/57/93 35/56/94
s 3
f 24/41/18 2/3/17 38/58/95 37/57/96
s 1
f 2/3/4 17/30/3 36/55/97 38/58/98
s off
f 23/40/99 26/44/100 39/60/101 40/59/102
f 26/44/103 19/33/104 41/61/105 39/60/106
s 1
f 19/33/2 1/2/1 42/62/107 41/61/108
s 2
f 1/2/26 23/40/25 40/59/109 42/62/110
s off
f 28/47/111 29/49/112 43/64/113 44/63/114
f 29/49/115 18/31/116 45/65/117 43/64/118
s 5
f 18/31/34 4/1/33 46/66/119 45/65/120
s 3
f 4/1/20 28/47/19 44/63/121 46/66/122
