# This file uses centimeters as units for non-parametric coordinates.

mtllib pointyBldg.mtl
v -75.000000 -350.000000 75.000000
v 75.000000 -350.000000 75.000000
v -75.000000 350.000000 75.000000
v 75.000000 350.000000 75.000000
v -75.000000 350.000000 -75.000000
v 75.000000 350.000000 -75.000000
v -75.000000 -350.000000 -75.000000
v 75.000000 -350.000000 -75.000000
v -8.660254 349.752563 -15.000003
v -8.660255 349.752563 15.000001
v 17.320509 349.752563 0.000000
v 0.000000 475.000000 0.000000
vt 0.375000 0.000000
vt 0.625000 0.000000
vt 0.375000 0.250000
vt 0.625000 0.250000
vt 0.375000 0.500000
vt 0.625000 0.500000
vt 0.375000 0.750000
vt 0.625000 0.750000
vt 0.375000 1.000000
vt 0.625000 1.000000
vt 0.875000 0.000000
vt 0.875000 0.250000
vt 0.125000 0.000000
vt 0.125000 0.250000
vt 0.375000 0.033494
vt 0.750000 0.250000
vt 0.375000 0.466506
vt 0.250000 0.500000
vt 0.416667 0.500000
vt 0.500000 1.000000
vt 0.583333 0.500000
vt 0.750000 0.500000
vn 0.000000 0.000000 1.000000
vn 0.000000 0.000000 1.000000
vn 0.000000 0.000000 1.000000
vn 0.000000 0.000000 1.000000
vn 0.000000 1.000000 0.000000
vn 0.000000 1.000000 0.000000
vn 0.000000 1.000000 0.000000
vn 0.000000 1.000000 0.000000
vn 0.000000 0.000000 -1.000000
vn 0.000000 0.000000 -1.000000
vn 0.000000 0.000000 -1.000000
vn 0.000000 0.000000 -1.000000
vn 0.000000 -1.000000 0.000000
vn 0.000000 -1.000000 0.000000
vn 0.000000 -1.000000 0.000000
vn 0.000000 -1.000000 0.000000
vn 1.000000 0.000000 0.000000
vn 1.000000 0.000000 0.000000
vn 1.000000 0.000000 0.000000
vn 1.000000 0.000000 0.000000
vn -1.000000 0.000000 0.000000
vn -1.000000 0.000000 0.000000
vn -1.000000 0.000000 0.000000
vn -1.000000 0.000000 0.000000
vn 0.000000 -1.000000 0.000001
vn 0.000000 -1.000000 0.000001
vn 0.000000 -1.000000 0.000001
vn -0.997618 0.068980 0.000000
vn -0.997618 0.068980 0.000000
vn -0.997618 0.068980 0.000000
vn 0.498809 0.068980 0.863963
vn 0.498809 0.068980 0.863963
vn 0.498809 0.068980 0.863963
vn 0.498809 0.068980 -0.863963
vn 0.498809 0.068980 -0.863963
vn 0.498809 0.068980 -0.863963
s off
usemtl initialShadingGroup
f 1/1/1 2/2/2 4/4/3 3/3/4
f 3/3/5 4/4/6 6/6/7 5/5/8
f 5/5/9 6/6/10 8/8/11 7/7/12
f 7/7/13 8/8/14 2/10/15 1/9/16
f 2/2/17 8/11/18 6/12/19 4/4/20
f 7/13/21 1/1/22 3/3/23 5/14/24
f 9/15/25 11/16/26 10/17/27
f 9/18/28 10/19/29 12/20/30
f 10/19/31 11/21/32 12/20/33
f 11/21/34 9/22/35 12/20/36
